<?xml version="1.0" encoding="UTF-8" standalone="no"?><!DOCTYPE svg PUBLIC "-//W3C//DTD SVG 1.1//EN" "http://www.w3.org/Graphics/SVG/1.1/DTD/svg11.dtd"><svg width="100%" height="100%" viewBox="0 0 140 144" version="1.1" xmlns="http://www.w3.org/2000/svg" xmlns:xlink="http://www.w3.org/1999/xlink" xml:space="preserve" xmlns:serif="http://www.serif.com/" style="fill-rule:evenodd;clip-rule:evenodd;stroke-linejoin:round;stroke-miterlimit:1.41421;"><rect id="Artboard1" x="0" y="0" width="140" height="144" style="fill:none;"/><path d="M116.509,89.44c-4.435,0 -8.338,2.266 -10.624,5.7l-0.011,-0.008c-7.576,11.695 -20.731,19.44 -35.703,19.44c-23.483,0 -42.519,-19.037 -42.519,-42.52c0,-23.483 19.036,-42.52 42.519,-42.52c16.489,0 30.776,9.393 37.829,23.114l0.015,-0.008c2.139,4.047 6.385,6.808 11.28,6.808c7.045,0 12.756,-5.711 12.756,-12.756c0,-2.344 -0.643,-4.534 -1.747,-6.421c-11.415,-21.552 -34.047,-36.248 -60.133,-36.248c-37.573,0 -68.031,30.459 -68.031,68.031c0,37.573 30.458,68.032 68.031,68.032c23.674,0 44.502,-12.107 56.688,-30.452c1.508,-2.094 2.406,-4.658 2.406,-7.436c0,-7.045 -5.711,-12.756 -12.756,-12.756" style="fill:#231f20;fill-rule:nonzero;"/><path d="M81.51,72.053c0,6.262 -5.077,11.338 -11.339,11.338c-6.262,0 -11.338,-5.076 -11.338,-11.338c0,-6.262 5.076,-11.339 11.338,-11.339c6.262,0 11.339,5.077 11.339,11.339" style="fill:#ed1f24;fill-rule:nonzero;"/></svg>